<svg version="1.1" xmlns="http://www.w3.org/2000/svg" viewBox="0 0 96.52464814389964 94.74929778568003" width="289.5739444316989" height="284.2478933570401">
  <!-- svg-source:excalidraw -->
  
  <defs>
    <style class="style-fonts">
      @font-face {
        font-family: "Virgil";
        src: url("https://excalidraw.com/Virgil.woff2");
      }
      @font-face {
        font-family: "Cascadia";
        src: url("https://excalidraw.com/Cascadia.woff2");
      }
    </style>
  </defs>
  <g stroke-linecap="round" transform="translate(36.30220090593559 40.36915028391377) rotate(0 12.213889834769532 12.132395942555604)"><path d="M6.62 0.55 C8.81 -0.63, 12.97 -0.29, 15.46 0.47 C17.96 1.23, 20.14 2.99, 21.6 5.13 C23.06 7.27, 24.47 10.82, 24.25 13.31 C24.02 15.8, 21.91 18.25, 20.25 20.08 C18.59 21.91, 16.86 23.8, 14.29 24.29 C11.71 24.79, 7.17 24.4, 4.82 23.06 C2.47 21.73, 0.74 18.97, 0.19 16.29 C-0.35 13.62, -0.25 9.63, 1.54 7.03 C3.34 4.44, 8.94 1.98, 10.97 0.71 C13 -0.57, 13.77 -0.81, 13.72 -0.6 M16.2 2.44 C18.14 3, 21.14 3.41, 22.43 5.7 C23.73 8, 24.41 13.36, 23.98 16.2 C23.55 19.04, 22.17 21.34, 19.86 22.72 C17.55 24.1, 12.6 24.9, 10.13 24.5 C7.66 24.1, 6.91 22.24, 5.03 20.32 C3.15 18.4, -0.72 15.5, -1.14 12.98 C-1.56 10.47, 0.75 7.54, 2.5 5.21 C4.24 2.88, 6.76 -0.55, 9.31 -1.01 C11.86 -1.47, 16.39 2.25, 17.8 2.45 C19.22 2.66, 18.05 0.39, 17.79 0.23" stroke="#000000" stroke-width="1" fill="none"></path></g><g stroke-linecap="round" transform="translate(10 10) rotate(0 38.26232407194982 37.374648892840014)"><path d="M-1.79 0.29 C18.78 -1.3, 36.58 -0.25, 76.7 -1.09 M-0.69 -0.54 C24.29 -0.1, 46.34 0.73, 76.27 0.9 M77.68 -0.64 C74.49 25.83, 77.73 53.36, 78.36 75.81 M75.64 -0.02 C77.77 16.86, 77.59 32.17, 76.72 75.73 M76.88 74.83 C55.79 72.77, 34.98 76.4, 0.66 73.23 M75.62 74.36 C56.37 74.26, 36.3 75.03, -0.99 73.85 M-1.85 73.7 C0.69 49.4, 1.21 27.96, 1.05 0.79 M-0.94 74.92 C-0.08 55.69, -0.51 36.96, 0.43 0.31" stroke="#000000" stroke-width="1" fill="none"></path></g><g stroke-linecap="round" transform="translate(28.283759454783194 10.087257295489053) rotate(0 19.35657671598824 11.26625926756742)"><path d="M0.29 -0.15 C13.65 -0.94, 28.98 0.53, 37.62 0.12 M-0.54 0.88 C11.14 -0.22, 23.02 0.01, 39.61 0.45 M38.08 -1.97 C38.86 7.83, 40.59 14.96, 39.78 20.92 M38.7 0.6 C39.02 9.12, 37.92 17.6, 39.7 22.28 M38.79 22.84 C28.27 23.14, 23.34 23.26, -1.52 21.71 M38.32 22.21 C28.3 21.61, 19.54 21.19, -0.9 22.73 M-1.05 22.53 C-1.37 18.37, 1.09 14.2, 0.79 -1.03 M0.17 22.93 C-0.63 14.3, -0.79 6.57, 0.31 -0.54" stroke="#000000" stroke-width="1" fill="none"></path></g><g stroke-linecap="round" transform="translate(54.37704685583651 13.906441998048194) rotate(0 3.8795935994363617 7.548874743078613)"><path d="M-0.06 -0.24 C2.52 0.16, 6.09 -0.43, 7.81 -0.11 M0.34 0.03 C2.33 0.4, 4.94 0.39, 7.93 -0.03 M6.27 0.02 C8.81 6.67, 9.23 11.5, 6.55 16.4 M8.21 0.33 C7.94 3.16, 7.77 8.07, 7.57 14.5 M7.88 14.37 C5.73 15.78, 3.54 14.51, -0.32 14.68 M7.63 14.75 C4.81 15.02, 1.91 14.72, 0.08 14.74 M0 14 C0.54 11.9, 0.93 7.8, -0.78 0.96 M0.3 14.73 C0.12 9.09, 0.46 4.28, -0.41 0.53" stroke="#000000" stroke-width="1" fill="none"></path></g></svg>