<svg version="1.1" xmlns="http://www.w3.org/2000/svg" viewBox="0 0 83.40987942291792 135.40751422338656" width="250.22963826875377" height="406.22254267015967">
  <!-- svg-source:excalidraw -->
  
  <defs>
    <style class="style-fonts">
      @font-face {
        font-family: "Virgil";
        src: url("https://excalidraw.com/Virgil.woff2");
      }
      @font-face {
        font-family: "Cascadia";
        src: url("https://excalidraw.com/Cascadia.woff2");
      }
    </style>
  </defs>
  <g stroke-linecap="round"><g transform="translate(24.0576643813464 103.19576214181836) rotate(0 24.291780053441073 -46.469057266985146)"><path d="M-0.77 0.26 C7.47 -15.21, 41 -77.7, 49.35 -93.2 M1.03 -0.65 C9.13 -15.94, 40.53 -76.86, 48.46 -92" stroke="#000000" stroke-width="1" fill="none"></path></g><g transform="translate(24.0576643813464 103.19576214181836) rotate(0 24.291780053441073 -46.469057266985146)"><path d="M45.01 -62.07 C44.72 -70.82, 46.65 -79.14, 47.08 -93.08 M45.5 -62.51 C46.95 -73.32, 47.47 -84.77, 49.04 -92.32" stroke="#000000" stroke-width="1" fill="none"></path></g><g transform="translate(24.0576643813464 103.19576214181836) rotate(0 24.291780053441073 -46.469057266985146)"><path d="M26.79 -71.53 C31.8 -77.39, 39.07 -82.95, 47.08 -93.08 M27.28 -71.97 C35.81 -79.02, 43.4 -86.8, 49.04 -92.32" stroke="#000000" stroke-width="1" fill="none"></path></g></g><mask></mask><g stroke-linecap="round"><g transform="translate(51.353635124459515 29.73461608002401) rotate(0 -15.352036912550375 31.599499196182364)"><path d="M0.26 0.11 C-4.84 10.65, -25.84 52.07, -30.96 62.51 M-1.07 -0.88 C-5.74 9.94, -23.55 53.23, -28.59 64.08" stroke="#000000" stroke-width="1" fill="none"></path></g></g><mask></mask><g stroke-linecap="round"><g transform="translate(70.83997910040591 41.12281182462141) rotate(0 -18.719233739618915 29.705639628873428)"><path d="M0.11 -0.65 C-5.87 9.07, -30.55 48.85, -36.64 58.62 M-1.29 1.62 C-7.36 11.51, -31.59 50.53, -37.55 60.07" stroke="#000000" stroke-width="1" fill="none"></path></g></g><mask></mask><g stroke-linecap="round"><g transform="translate(15.7381156823443 90.77668769099421) rotate(0 10.05522601349844 6.153178493560063)"><path d="M-0.65 0.07 C2.76 2.26, 17.3 11.21, 20.76 13.24 M1.2 -0.94 C4.42 0.86, 16.16 8.91, 19.73 11.28" stroke="#000000" stroke-width="1" fill="none"></path></g></g><mask></mask><g stroke-linecap="round"><g transform="translate(16.902664972140542 90.15358110654108) rotate(0 -1.7636524173638577 2.432687991825219)"><path d="M0.07 -0.17 C-0.41 0.78, -2.17 3.89, -2.81 5.08 M-1.35 -1.31 C-1.98 -0.17, -3.01 5.1, -3.6 6.18" stroke="#000000" stroke-width="1" fill="none"></path></g></g><mask></mask><g stroke-linecap="round"><g transform="translate(13.806149665554699 96.01100673706208) rotate(0 10.029811052655646 6.41738449950833)"><path d="M-0.17 0.3 C3.19 2.33, 15.91 10.11, 19.51 12.23 M-1.73 -0.59 C2.07 1.58, 17.97 10.93, 21.79 13.42" stroke="#000000" stroke-width="1" fill="none"></path></g></g><mask></mask><g stroke-linecap="round"><g transform="translate(37.42490966120056 102.49601368514016) rotate(0 -2.2902159126204538 3.904000210390336)"><path d="M0.3 -0.83 C-0.53 0.64, -4.14 7.33, -4.88 8.64 M-1 1.35 C-1.44 2.52, -1.87 5.96, -2.51 7.07" stroke="#000000" stroke-width="1" fill="none"></path></g></g><mask></mask><g stroke-linecap="round"><g transform="translate(24.89006355921549 103.76907525265926) rotate(0 -7.604454471053543 10.326480705263748)"><path d="M-1.08 1.76 C-4.17 4.83, -6.91 11.22, -13.63 21.64 M-0.32 -0.99 C-4.36 6.76, -7.99 13.08, -14.89 19.93" stroke="#000000" stroke-width="1" fill="none"></path></g></g><mask></mask></svg>